
        <svg xmlns="http://www.w3.org/2000/svg" xmlns:xlink="http://www.w3.org/1999/xlink" version="1.1" width="2959.676660766303" 
        height="3219.2353082049112" viewBox="0 0 2959.676660766303 3219.2353082049112">
			
			<g transform="scale(10.961765410245567) translate(10, 10)">
				<defs id="SvgjsDefs4451"></defs><g id="SvgjsG4452" featureKey="symbolFeature-0" transform="matrix(0.34945483850767084,0,0,0.34945483850767084,-49.72742458609309,-54.41011195693515)" fill="#51cca4"><path xmlns="http://www.w3.org/2000/svg" d="M500,292.3l343.7,97.8c1,0.3,2,0.4,3,0.4c2.4,0,4.7-0.8,6.6-2.2c2.8-2.1,4.4-5.3,4.4-8.8v-93.8c0-4.7-3-8.9-7.4-10.4  L503.6,156.3c-0.2-0.1-0.3-0.1-0.5-0.1c-0.2,0-0.3-0.1-0.5-0.1c-0.3-0.1-0.5-0.1-0.8-0.2c-0.2,0-0.4-0.1-0.5-0.1  c-0.2,0-0.5,0-0.7-0.1c-0.2,0-0.4,0-0.6,0c-0.2,0-0.4,0-0.6,0c-0.2,0-0.5,0-0.7,0.1c-0.2,0-0.4,0.1-0.5,0.1c-0.3,0-0.5,0.1-0.8,0.2  c-0.2,0-0.3,0.1-0.5,0.1c-0.2,0-0.3,0.1-0.5,0.1L149.7,275.3c-4.4,1.5-7.4,5.7-7.4,10.4v245.1c0,3.3,1.5,6.4,4,8.5  c2,1.6,4.5,2.5,7,2.5c0.7,0,1.4-0.1,2-0.2L500,476.2L767.8,527v38l-266.1-40.9c-0.2,0-0.4,0-0.5-0.1c-0.2,0-0.4,0-0.5-0.1  c-0.2,0-0.4,0-0.6,0s-0.4,0-0.6,0c-0.2,0-0.4,0-0.5,0.1c-0.2,0-0.4,0-0.5,0.1l-346.7,53.3c-5.4,0.8-9.3,5.4-9.3,10.9v245.1  c0,6.1,4.9,11,11,11H500c0,0,0,0,0,0s0,0,0,0h346.7c6.1,0,11-4.9,11-11v-93.8c0-5.8-4.5-10.6-10.4-11l-346.7-20.4c0,0-0.1,0-0.1,0  c-0.2,0-0.4,0-0.6,0c-0.2,0-0.3,0-0.5,0c0,0-0.1,0-0.1,0l-267.1,15.7v-38.2L500,660.2L845.7,693c0.3,0,0.7,0,1,0  c2.7,0,5.4-1,7.4-2.9c2.3-2.1,3.6-5,3.6-8.1V437c0-5.1-3.4-9.5-8.3-10.7l-346.7-86.2c-0.1,0-0.2,0-0.2,0c-0.2,0-0.3-0.1-0.5-0.1  c-0.2,0-0.5-0.1-0.7-0.1c-0.2,0-0.4,0-0.6,0c-0.2,0-0.4,0-0.6,0c-0.2,0-0.4,0-0.7,0c-0.2,0-0.4,0-0.6,0c-0.2,0-0.5,0.1-0.7,0.1  c-0.2,0-0.3,0.1-0.5,0.1c-0.1,0-0.2,0-0.2,0L232.2,406v-37.5L500,292.3z M511,182.1l324.7,111.5V365L511,272.6V182.1z M511,730.8  l324.7,19.1v72.4H511V730.8z M489,639.2l-268.8,25.5c-5.6,0.5-10,5.3-10,11v59.9c0,3,1.2,5.9,3.5,8c2.2,2.1,5.2,3.2,8.2,3L489,730.8  v91.5H164.3V597.7L489,547.8V639.2z M511,364.9l324.7,80.7V670L511,639.2v-91.4l266.1,40.9c3.2,0.5,6.4-0.4,8.8-2.5  c2.4-2.1,3.8-5.1,3.8-8.3v-59.9c0-5.3-3.8-9.8-9-10.8L511,455.9V364.9z M214.4,428.8c2.7,2.1,6.1,2.8,9.4,2L489,364.9v91  l-324.7,61.6V293.6L489,182.1v90.5l-270.8,77.1c-4.7,1.3-8,5.7-8,10.6v59.9C210.2,423.5,211.8,426.7,214.4,428.8z"></path></g><g id="SvgjsG4453" featureKey="nameFeature-0" transform="matrix(0.0414077523784058,0,0,0.0414077523784058,109.91750746020026,260.792961238108)" fill="#fffef6"><path d="M9.7656 8.154 l-5.4102 0 l0 3.8574 l4.7852 0 l0 2.0605 l-4.7852 0 l0 3.8379 l5.4102 0 l0 2.0898 l-7.7734 0 l0 -13.926 l7.7734 0 l0 2.0801 z M50.12695625 20 l0 -15 l2.2656 0 l0 15 l-2.2656 0 z M102.0705 14.9219 l-0.029297 0.56641 l-7.4707 0 c0.087891 1.9531 1.3477 2.8906 2.8418 2.8906 c1.0938 0 1.9824 -0.55664 2.4316 -1.543 l2.0508 0.35156 c-0.68359 1.8945 -2.3828 2.998 -4.4629 2.998 c-3.0176 0 -5.0684 -1.875 -5.0684 -5.0977 s2.0996 -5.1074 5 -5.1074 c2.7051 0 4.6973 1.582 4.707 4.9414 z M97.373 11.6504 c-1.377 0 -2.3926 0.66406 -2.7051 2.1582 l5.1465 0 c-0.17578 -1.4551 -1.1426 -2.1582 -2.4414 -2.1582 z M152.89021875 9.99 c1.9727 0 3.3105 1.0938 3.3105 3.125 l0 6.8848 l-2.2559 0 l0 -6.2598 c0 -1.3281 -0.80078 -1.9141 -1.7188 -1.9141 c-1.0742 0 -1.9531 0.66406 -1.9531 2.373 l0 5.8008 l-2.2852 0 l0 -6.2109 c0 -1.3574 -0.79102 -1.9629 -1.748 -1.9629 c-1.0547 0 -1.9629 0.66406 -1.9629 2.4707 l0 5.7031 l-2.2363 0 l0 -9.8242 l2.2363 0 l0 1.2109 c0.61523 -0.88867 1.582 -1.3965 2.7734 -1.3965 c1.3379 0 2.3828 0.53711 2.8906 1.5332 c0.64453 -1.0156 1.6797 -1.5332 2.9492 -1.5332 z M205.7033125 14.9219 l-0.029297 0.56641 l-7.4707 0 c0.087891 1.9531 1.3477 2.8906 2.8418 2.8906 c1.0938 0 1.9824 -0.55664 2.4316 -1.543 l2.0508 0.35156 c-0.68359 1.8945 -2.3828 2.998 -4.4629 2.998 c-3.0176 0 -5.0684 -1.875 -5.0684 -5.0977 s2.0996 -5.1074 5 -5.1074 c2.7051 0 4.6973 1.582 4.707 4.9414 z M201.0058125 11.6504 c-1.377 0 -2.3926 0.66406 -2.7051 2.1582 l5.1465 0 c-0.17578 -1.4551 -1.1426 -2.1582 -2.4414 -2.1582 z M250.89843125 9.99 c2.1973 0 3.5352 1.2109 3.5352 3.3984 l0 6.6113 l-2.2656 0 l0 -6.123 c0 -1.4844 -0.89844 -2.0508 -1.9336 -2.0508 c-1.2402 0 -2.3047 0.70313 -2.3145 2.5293 l0 5.6445 l-2.2461 0 l0 -9.8242 l2.2461 0 l0 1.1621 c0.6543 -0.84961 1.6992 -1.3477 2.9785 -1.3477 z M298.398403125 20 c-1.7578 0 -2.8125 -1.0352 -2.8125 -2.8711 l0 -5.1953 l-1.9629 0 l0 -1.7578 l0.67383 0 c1.0352 0 1.5137 -0.41016 1.5137 -1.6895 l0 -1.5234 l2.0508 0 l0 3.2129 l2.1387 0 l0 1.7578 l-2.1387 0 l0 4.9609 c0 0.91797 0.49805 1.3672 1.25 1.3672 l0.88867 0 l0 1.7383 l-1.6016 0 z M389.13081875 20.18555 c-4.0039 0 -7.0313 -2.7344 -7.0313 -7.1582 c0 -4.4043 3.0273 -7.1484 7.0313 -7.1484 c2.9297 0 5.332 1.4844 6.377 3.9746 l-2.1777 0.83008 c-0.72266 -1.6699 -2.3047 -2.627 -4.1992 -2.627 c-2.6367 0 -4.6973 1.8359 -4.6973 4.9707 c0 3.1543 2.0605 4.9805 4.6973 4.9805 c1.8945 0 3.4766 -0.94727 4.1992 -2.6172 l2.1777 0.83008 c-1.0449 2.4902 -3.4473 3.9648 -6.377 3.9648 z M435.3808625 20 l0 -15 l2.2656 0 l0 15 l-2.2656 0 z M487.32440625 14.9219 l-0.029297 0.56641 l-7.4707 0 c0.087891 1.9531 1.3477 2.8906 2.8418 2.8906 c1.0938 0 1.9824 -0.55664 2.4316 -1.543 l2.0508 0.35156 c-0.68359 1.8945 -2.3828 2.998 -4.4629 2.998 c-3.0176 0 -5.0684 -1.875 -5.0684 -5.0977 s2.0996 -5.1074 5 -5.1074 c2.7051 0 4.6973 1.582 4.707 4.9414 z M482.62690625 11.6504 c-1.377 0 -2.3926 0.66406 -2.7051 2.1582 l5.1465 0 c-0.17578 -1.4551 -1.1426 -2.1582 -2.4414 -2.1582 z M529.609425 20.18555 c-1.5918 0 -3.0273 -0.76172 -3.0273 -2.6758 c0 -2.0996 1.709 -2.7539 3.7598 -3.125 l1.4844 -0.27344 c0.64453 -0.12695 0.9082 -0.41992 0.9082 -0.88867 c0 -1.2109 -0.94727 -1.6113 -1.9238 -1.6113 c-1.0645 0 -1.9336 0.46875 -2.0801 1.7285 l-2.0215 -0.37109 c0.3418 -2.0313 1.8066 -2.9688 4.2383 -2.9688 c1.9629 0 3.9453 0.70313 3.9453 3.4668 l0 3.8086 c0 0.92773 0.24414 1.1914 0.92773 1.1914 l0.15625 0 l0 1.5332 l-1.0645 0 c-1.1035 0 -1.7676 -0.39063 -1.9922 -1.2988 l-0.10742 0 c-0.76172 1.0742 -2.0215 1.4844 -3.2031 1.4844 z M530.136725 18.418 c1.543 0 2.7441 -1.1426 2.7441 -2.9395 l-2.5098 0.55664 c-1.0352 0.19531 -1.6113 0.54688 -1.6113 1.2891 c0 0.77148 0.60547 1.0938 1.377 1.0938 z M580.957025 9.99 c2.1973 0 3.5352 1.2109 3.5352 3.3984 l0 6.6113 l-2.2656 0 l0 -6.123 c0 -1.4844 -0.89844 -2.0508 -1.9336 -2.0508 c-1.2402 0 -2.3047 0.70313 -2.3145 2.5293 l0 5.6445 l-2.2461 0 l0 -9.8242 l2.2461 0 l0 1.1621 c0.6543 -0.84961 1.6992 -1.3477 2.9785 -1.3477 z M626.210896875 8.301 c-0.76172 0 -1.3867 -0.625 -1.3867 -1.377 c0 -0.76172 0.625 -1.377 1.3867 -1.377 c0.74219 0 1.377 0.61523 1.377 1.377 c0 0.75195 -0.63477 1.377 -1.377 1.377 z M625.058596875 20 l0 -9.8242 l2.2559 0 l0 9.8242 l-2.2559 0 z M673.300775 9.99 c2.1973 0 3.5352 1.2109 3.5352 3.3984 l0 6.6113 l-2.2656 0 l0 -6.123 c0 -1.4844 -0.89844 -2.0508 -1.9336 -2.0508 c-1.2402 0 -2.3047 0.70313 -2.3145 2.5293 l0 5.6445 l-2.2461 0 l0 -9.8242 l2.2461 0 l0 1.1621 c0.6543 -0.84961 1.6992 -1.3477 2.9785 -1.3477 z M724.326146875 10.1758 l2.168 0 l0 9.209 c0 3.584 -1.9531 5.2637 -5 5.2637 c-2.6465 0 -4.1797 -1.1523 -4.9219 -3.0273 l1.8652 -0.83984 c0.56641 1.377 1.4941 2.0703 2.9688 2.0703 c1.8945 0 2.8223 -1.2305 2.8223 -3.3203 l0 -1.4551 c-0.58594 0.94727 -1.8164 1.6113 -3.2031 1.6113 c-2.4414 0 -4.4824 -1.9629 -4.4824 -4.8633 s2.0508 -4.834 4.502 -4.834 c1.4453 0 2.6563 0.70313 3.2227 1.7285 z M721.572246875 17.832 c1.6113 0 2.8613 -1.3574 2.8613 -3.0078 s-1.2402 -3.0176 -2.8613 -3.0176 c-1.6016 0 -2.8516 1.2793 -2.8516 3.0176 c0 1.7188 1.2695 3.0078 2.8516 3.0078 z"></path></g><g id="SvgjsG4454" featureKey="nameFeature-1" transform="matrix(0.09951734532946038,0,0,0.09951734532946038,109.91448477902127,271.41494628711644)" fill="#fffef6"><path d="M6.4648 20.18555 c-2.9492 0 -5.1563 -1.4063 -5.6055 -3.8672 l2.4023 -0.55664 c0.25391 1.6016 1.5723 2.4805 3.291 2.4805 c1.3574 0 2.5879 -0.57617 2.5684 -2.041 c-0.019531 -1.5234 -1.709 -1.9629 -3.5352 -2.4805 c-2.1094 -0.61523 -4.2773 -1.3184 -4.2773 -3.877 c0 -2.5977 2.1289 -3.9648 4.7754 -3.9648 c2.4414 0 4.7559 1.0254 5.293 3.5254 l-2.2559 0.56641 c-0.3125 -1.4844 -1.4648 -2.1387 -2.9199 -2.1387 c-1.2988 0 -2.5293 0.55664 -2.5293 1.9727 c0 1.2891 1.4746 1.6895 3.1641 2.1582 c2.1777 0.60547 4.6973 1.3477 4.6973 4.1406 c0 2.8809 -2.4121 4.082 -5.0684 4.082 z M57.9491875 10.1758 l2.334 0 l-5.8789 14.443 l-2.2949 0 l2.1094 -4.9414 l-3.9355 -9.502 l2.4707 0 l2.5488 7.0313 z M102.910109375 20.18555 c-2.1387 0 -3.7695 -0.9082 -4.1016 -2.7246 l1.9043 -0.53711 c0.26367 1.1133 1.0938 1.6504 2.1973 1.6504 c0.81055 0 1.6895 -0.29297 1.6699 -1.2402 c-0.019531 -1.1133 -1.4453 -1.25 -3.0176 -1.7773 c-1.2695 -0.41016 -2.5 -0.98633 -2.5 -2.6953 c0 -1.9727 1.6309 -2.8613 3.6621 -2.8613 c1.8555 0 3.3984 0.75195 3.7402 2.5781 l-1.7773 0.41992 c-0.26367 -1.0352 -1.0449 -1.4453 -1.9531 -1.4453 c-0.81055 0 -1.6016 0.3125 -1.6016 1.123 c0 0.9375 1.1523 1.1328 2.4023 1.4648 c1.5332 0.40039 3.2129 0.98633 3.2129 3.0664 c0 2.1777 -1.8164 2.9785 -3.8379 2.9785 z M150.068325 20 c-1.7578 0 -2.8125 -1.0352 -2.8125 -2.8711 l0 -5.1953 l-1.9629 0 l0 -1.7578 l0.67383 0 c1.0352 0 1.5137 -0.41016 1.5137 -1.6895 l0 -1.5234 l2.0508 0 l0 3.2129 l2.1387 0 l0 1.7578 l-2.1387 0 l0 4.9609 c0 0.91797 0.49805 1.3672 1.25 1.3672 l0.88867 0 l0 1.7383 l-1.6016 0 z M200.478703125 14.9219 l-0.029297 0.56641 l-7.4707 0 c0.087891 1.9531 1.3477 2.8906 2.8418 2.8906 c1.0938 0 1.9824 -0.55664 2.4316 -1.543 l2.0508 0.35156 c-0.68359 1.8945 -2.3828 2.998 -4.4629 2.998 c-3.0176 0 -5.0684 -1.875 -5.0684 -5.0977 s2.0996 -5.1074 5 -5.1074 c2.7051 0 4.6973 1.582 4.707 4.9414 z M195.781203125 11.6504 c-1.377 0 -2.3926 0.66406 -2.7051 2.1582 l5.1465 0 c-0.17578 -1.4551 -1.1426 -2.1582 -2.4414 -2.1582 z M251.298421875 9.99 c1.9727 0 3.3105 1.0938 3.3105 3.125 l0 6.8848 l-2.2559 0 l0 -6.2598 c0 -1.3281 -0.80078 -1.9141 -1.7188 -1.9141 c-1.0742 0 -1.9531 0.66406 -1.9531 2.373 l0 5.8008 l-2.2852 0 l0 -6.2109 c0 -1.3574 -0.79102 -1.9629 -1.748 -1.9629 c-1.0547 0 -1.9629 0.66406 -1.9629 2.4707 l0 5.7031 l-2.2363 0 l0 -9.8242 l2.2363 0 l0 1.2109 c0.61523 -0.88867 1.582 -1.3965 2.7734 -1.3965 c1.3379 0 2.3828 0.53711 2.8906 1.5332 c0.64453 -1.0156 1.6797 -1.5332 2.9492 -1.5332 z M298.476515625 20.18555 c-2.1387 0 -3.7695 -0.9082 -4.1016 -2.7246 l1.9043 -0.53711 c0.26367 1.1133 1.0938 1.6504 2.1973 1.6504 c0.81055 0 1.6895 -0.29297 1.6699 -1.2402 c-0.019531 -1.1133 -1.4453 -1.25 -3.0176 -1.7773 c-1.2695 -0.41016 -2.5 -0.98633 -2.5 -2.6953 c0 -1.9727 1.6309 -2.8613 3.6621 -2.8613 c1.8555 0 3.3984 0.75195 3.7402 2.5781 l-1.7773 0.41992 c-0.26367 -1.0352 -1.0449 -1.4453 -1.9531 -1.4453 c-0.81055 0 -1.6016 0.3125 -1.6016 1.123 c0 0.9375 1.1523 1.1328 2.4023 1.4648 c1.5332 0.40039 3.2129 0.98633 3.2129 3.0664 c0 2.1777 -1.8164 2.9785 -3.8379 2.9785 z"></path></g>
			</g>
		</svg>
	